<?xml version="1.0" encoding="UTF-8"?><svg id="Layer_2" xmlns="http://www.w3.org/2000/svg" viewBox="0 0 175.74 372.56"><defs><style>.cls-1{fill:#fff;}</style></defs><g id="Layer_1-2"><path class="cls-1" d="M140.83,0c3.28,0,6.55,0,9.83,0,.43.06.86.16,1.29.16,7.43.05,14.86.09,22.28.13.42,0,.84.04,1.25.06v61.24c-.48,0-.87,0-1.26,0-6.39.01-12.78.03-19.17.03-6.67,0-13.34-.08-20.01-.01-3.77.04-7.36,1.04-10.56,3.05-7.74,4.86-11.2,12.18-11.33,21.07-.17,12.31-.04,24.62-.04,36.93q0,1.82,1.81,1.83c19.73,0,39.46,0,59.19,0,.54,0,1.07.04,1.63.07,0,.31.02.47,0,.63-.6,3.54-1.23,7.07-1.82,10.61-2.73,16.23-5.47,32.46-8.15,48.71-.18,1.08-.53,1.35-1.57,1.35-16.34-.03-32.67-.02-49.01-.02-2.23,0-1.96-.25-1.96,2,0,60.99,0,121.99,0,182.98v1.75H40.18v-186.54H0v-61.49c.59,0,1.1,0,1.61,0,12.38,0,24.76-.01,37.15.02,1.13,0,1.49-.27,1.49-1.45-.02-6.95,0-13.91.1-20.86.15-10.03.32-20.05.61-30.07.23-7.94,1.55-15.72,4.09-23.25,7.53-22.27,22.34-37.07,45.17-43.25C104.06,1.92,118.29.73,132.59.29,135.34.2,138.08.1,140.83,0Z"/></g></svg>