<?xml version="1.0" encoding="UTF-8"?><svg id="Layer_2" xmlns="http://www.w3.org/2000/svg" viewBox="0 0 374.1 374.15"><defs><style>.cls-1{fill:#fff;}</style></defs><g id="Layer_1-2"><path class="cls-1" d="M187.05.29c4.59,0,9.23-.41,13.78.07,25,2.61,49.02,8.75,71.5,20.3,15.53,7.98,29.62,17.98,42.3,29.96,15.54,14.7,28.5,31.38,38.38,50.39,8.33,16.04,14.18,32.96,17.3,50.76,1.33,7.61,2.15,15.31,3.15,22.98,1.01,7.72.6,15.49.39,23.22-.15,5.28-1.12,10.54-1.89,15.79-1.67,11.38-4.24,22.56-7.85,33.49-9.35,28.32-24.84,52.75-46.4,73.35-14.66,14.01-31,25.65-49.13,34.75-15.1,7.58-30.95,12.92-47.59,15.92-12.23,2.21-24.55,3.2-36.95,2.79-26.76-.89-52.53-6.28-76.92-17.57-17.59-8.14-33.38-18.95-47.36-32.37-16.96-16.28-30.79-34.89-41.29-55.93-7.58-15.19-12.82-31.16-15.75-47.89C.49,207.7-.38,195,.15,182.25c1.1-26.08,6.3-51.25,17.43-75.02,8.41-17.97,19.62-34,33.32-48.31,11.81-12.32,24.86-23.12,39.46-31.99,17.51-10.65,36.3-18.14,56.36-22.28,8.31-1.71,16.72-3,25.13-4.06,5.01-.63,10.12-.42,15.19-.59,0,.1,0,.19,0,.29ZM286.59,191.33c0-22.15.03-44.29-.03-66.44,0-3.42-.03-6.91-.63-10.26-1.62-9.04-6.72-15.44-15.37-18.85-4.36-1.72-8.94-1.94-13.54-1.94-46.01.03-92.02.05-138.02.12-2.27,0-4.56.12-6.79.51-8.31,1.44-14.65,5.67-18.28,13.49-2.12,4.55-2.66,9.41-2.66,14.36,0,45.97-.01,91.94.02,137.91,0,2.62.17,5.28.6,7.86,1.34,7.88,5.21,14.08,12.51,17.81,4.39,2.25,9.14,3.1,14.01,3.1,46.61.02,93.22.03,139.83-.01,2.62,0,5.28-.2,7.85-.7,9.18-1.78,15.63-6.89,18.78-15.87,1.37-3.9,1.71-7.94,1.71-12.03,0-23.02,0-46.05,0-69.07Z"/><path class="cls-1" d="M113.08,176.88h17.45c-.22,1.09-.42,2.12-.64,3.14-6.01,28.1,7.04,51.96,30.23,64.87,10.17,5.66,21.28,7.52,32.84,6.79,14.17-.89,26.61-6.03,37.19-15.46,10.47-9.33,16.96-20.92,19.19-34.84,1.26-7.85.69-15.59-1.26-23.26-.1-.38-.17-.76-.29-1.25h16.24c.08,1.16.24,2.31.24,3.45.01,25.42.02,50.84,0,76.27,0,1.31-.18,2.63-.44,3.92-.68,3.38-2.67,5.2-6.1,5.65-1.18.16-2.39.26-3.58.26-43.69.01-87.38.01-131.07,0-1.19,0-2.4-.08-3.57-.29-3.78-.67-5.86-2.97-6.2-6.85-.14-1.59-.23-3.19-.23-4.78-.01-25.3,0-50.6,0-75.91,0-.52,0-1.04,0-1.7Z"/><path class="cls-1" d="M189.03,228.88c-17.16,0-32.49-11.02-37.34-26.85-5.33-17.38,2.19-35.46,18.34-44.08,15.36-8.2,33.85-5.85,46.52,6.11,6.49,6.13,10.24,13.75,11.33,22.66,2.37,19.32-10.69,35.54-27.52,40.54-3.69,1.1-7.48,1.62-11.33,1.61Z"/><path class="cls-1" d="M264.1,135.05c0,3.43.04,6.87,0,10.3-.07,4.94-3.05,8.14-7.97,8.62-1.11.11-2.23.18-3.34.17-6.71-.05-13.42.01-20.12-.24-4.57-.17-7.76-3.69-7.8-8.27-.07-7.26-.07-14.53,0-21.79.04-4.34,3.4-7.85,7.73-7.91,7.94-.12,15.89-.11,23.83,0,4.22.05,7.5,3.5,7.63,7.87.11,3.75.02,7.5.02,11.26.01,0,.02,0,.03,0Z"/></g></svg>