<?xml version="1.0" encoding="UTF-8"?><svg id="Layer_2" xmlns="http://www.w3.org/2000/svg" viewBox="0 0 374.03 373.89"><defs><style>.cls-1{fill:#fff;}</style></defs><g id="Layer_1-2"><path class="cls-1" d="M374.03,105.65v111.53c-.06.51-.16,1.02-.16,1.53-.04,18.55-.07,37.09-.09,55.64-.02,13.55-.05,27.1-.02,40.65,0,4.45-.32,8.85-1.21,13.21-2.45,11.97-7.92,22.3-16.95,30.58-11.17,10.24-24.54,15.05-39.57,15.06-85.5.06-171,.02-256.5.05-4.85,0-9.65-.38-14.39-1.36-11.03-2.28-20.75-7.08-28.58-15.29-7.51-7.88-12.46-17.15-15.01-27.79C.42,324.74,0,320.06,0,315.25.05,229.23.05,143.21,0,57.19c0-4.3.38-8.48,1.34-12.67,2.68-11.66,8.09-21.71,17.12-29.68,7.16-6.31,15.38-10.57,24.62-13.08C47.41.59,51.67,0,56.15,0c87.38.05,174.76.05,262.14,0,4.23,0,8.31.43,12.39,1.58,15.93,4.51,28.33,13.54,36.36,28.18,4.66,8.5,6.79,17.69,6.82,27.35.06,15.59.01,31.18.02,46.77,0,.59.1,1.18.16,1.77ZM219.86,182.08c-.71-.03-1.3-.09-1.89-.09-13.95,0-27.9,0-41.85,0q-1.89,0-1.89,1.87c0,50.12,0,100.25,0,150.37,0,2.06-.33,2.2,1.98,2.24.56,0,1.11.16,1.67.16,13.47.02,26.94.04,40.41.04,2.29,0,3.27-.94,3.46-3.23.04-.48.03-.96.03-1.44-.04-6.91-.11-13.83-.11-20.74,0-10.63.05-21.26.08-31.89.03-9.87-.26-19.75.8-29.58.42-3.91.96-7.85,1.95-11.65,2.16-8.3,7.45-13.65,15.87-15.76,4.13-1.03,8.3-1.56,12.55-1.56,9.39,0,17.35,5.86,19.82,14.93,1.83,6.73,2.26,13.7,2.38,20.64.17,9.67.09,19.34.09,29.02,0,16.39-.02,32.77-.03,49.16,0,.5,0,1.01,0,1.63h1.71c14.51,0,29.02,0,43.53,0q2.84,0,2.85-2.91c0-14.19,0-28.38,0-42.57,0-12.63-.07-25.26.02-37.89.05-7.71.04-15.41-.73-23.1-.81-8.15-2.69-16.03-5.85-23.59-2.5-5.99-5.81-11.46-10.64-15.9-4.73-4.35-10.38-6.86-16.53-8.51-9.97-2.68-19.99-4.49-30.38-3.25-8.39,1-16.14,3.67-23.16,8.41-5.88,3.97-10.58,9.1-14.78,14.74-.25.34-.7.54-1.06.8-.1-.4-.27-.81-.27-1.21-.02-5.88-.01-11.75-.01-17.63,0-.47,0-.94,0-1.51ZM96.03,336.11h47.52c0-.52,0-.96,0-1.39,0-50.4,0-100.79.02-151.19,0-1.19-.29-1.57-1.52-1.57-14.87.04-29.73.02-44.6.03-.46,0-.93.06-1.43.09v154.02ZM119.8,161.45c15.3-.01,28.12-12.89,28.12-28.24,0-15.18-12.76-27.86-28.03-27.85-15.29,0-28.01,12.67-27.99,27.88.02,15.27,12.83,28.23,27.9,28.22Z"/></g></svg>