<?xml version="1.0" encoding="UTF-8"?><svg id="Layer_2" xmlns="http://www.w3.org/2000/svg" viewBox="0 0 373.76 374.38"><defs><style>.cls-1{fill:#fff;}</style></defs><g id="Layer_1-2"><path class="cls-1" d="M.13,187.26c0-1.56.06-3.12-.01-4.68-.34-7.06.91-14,1.7-20.96,1.19-10.4,3.39-20.61,6.64-30.57,5.32-16.25,12.87-31.44,22.02-45.85,13.61-21.44,30.81-39.41,52.01-53.47,17.08-11.32,35.65-19.34,55.37-24.79,8-2.21,16.07-4.06,24.29-5.24,7.79-1.12,15.6-1.93,23.5-1.65,4.75.17,9.55-.28,14.26.21,21.79,2.27,43.07,6.69,63.22,15.72,18.93,8.48,35.83,19.92,50.88,34.16,13.3,12.59,24.98,26.5,34.47,42.2,10.69,17.69,18.04,36.66,21.94,56.97,1.8,9.35,2.86,18.77,3.2,28.27.3,8.19.09,16.37-.55,24.55-1.07,13.72-3.38,27.22-7.28,40.42-7.24,24.49-19.25,46.39-36.12,65.55-17.74,20.15-38.71,36.16-62.7,48.2-15.21,7.64-31.23,12.89-48.01,15.74-7.96,1.35-15.98,2.1-24.05,2.29-7.56.18-15.1-.07-22.61-.84-12.81-1.31-25.35-3.94-37.69-7.6-19.48-5.77-37.88-13.87-54.81-25.19-23.27-15.57-41.45-35.78-54.87-60.3-9.92-18.12-16.62-37.41-21.19-57.51-1.62-7.14-2.61-14.36-3.28-21.63-.43-4.64-.32-9.33-.46-14,.04,0,.09,0,.13,0ZM154.81,294.6c.11.06.21.13.32.17.38.13.75.27,1.13.38,15.04,4.38,30.31,5.55,45.85,3.47,13.05-1.75,25.42-5.67,37.13-11.68,37.51-19.23,61.16-57.68,62.04-98.63.21-9.66-.82-19.21-3.11-28.61-5.45-22.37-16.36-41.68-33.06-57.55-21.47-20.4-47.27-30.35-76.73-31-9.98-.22-19.83,1.03-29.51,3.54-24,6.22-44.18,18.64-60.03,37.73-18.44,22.23-26.71,48.05-26.21,76.79.12,7.08,1.05,14.08,2.61,20.99,3.88,17.22,11.36,32.73,22.35,46.54,9.84,12.35,21.6,22.4,35.81,29.44,2.41,1.19,4.91,2.2,7.49,3.35.08-.49.15-.71.16-.94.14-3.11.25-6.23.39-9.34.22-4.91.61-9.79,1.73-14.6,4.36-18.63,8.71-37.26,13.04-55.89.72-3.11,1.5-6.25.77-9.46-.4-1.78-1.22-3.46-1.62-5.24-1.08-4.7-1.28-9.48-1-14.29.46-8.02,3.33-14.96,9.19-20.57,4.55-4.35,9.85-6.36,16.1-4.91,9.13,2.11,11.87,8.66,11.73,16.4-.09,5.09-1.11,10.05-2.49,14.95-2.48,8.82-5.04,17.63-7.36,26.49-2.07,7.91,1.55,15.72,8.72,19.38,4.15,2.12,8.54,2.42,13.07,1.69,7-1.12,12.66-4.62,17.03-10.07,9.36-11.69,13.94-25.26,15.04-40.04.37-4.92.21-9.9.03-14.84-.23-6.01-1.72-11.76-4.54-17.1-5.06-9.58-13.1-15.66-23.17-19.12-10.64-3.66-21.59-3.92-32.5-1.68-17.56,3.61-30.37,13.58-38.1,29.84-3.12,6.56-4.62,13.56-5.23,20.77-.68,8.14.86,15.69,5.7,22.48,1.27,1.79,2.38,3.85,2.93,5.96,1.31,5.02-.83,9.55-2.66,14.05-.41,1-1.45,1.55-2.59,1.37-1.13-.18-2.28-.42-3.32-.87-7.62-3.27-13.12-8.8-16.47-16.31-7.04-15.77-7.77-31.93-2.17-48.28,4.32-12.59,12.12-22.74,22.42-31.05,17.22-13.89,36.73-20.54,58.94-18.8,9.94.78,19.53,3.05,28.76,6.77,16.15,6.49,28.2,17.36,34.79,33.69,5.4,13.38,6.56,27.3,4.53,41.52-1.89,13.25-6.66,25.45-14.15,36.51-11.72,17.31-28.19,25.64-49.05,25.13-9.44-.23-17.25-4.16-23.51-11.21-.57-.64-1.24-1.19-2.01-1.93-.24.76-.44,1.27-.57,1.8-1.6,6.26-3.19,12.51-4.78,18.77-2.22,8.75-4.76,17.39-8.94,25.44-1.5,2.89-3.25,5.66-4.94,8.58Z"/></g></svg>